<?xml version="1.0" encoding="UTF-8"?>
<svg width="223px" height="227px" viewBox="0 0 223 227" version="1.1" xmlns="http://www.w3.org/2000/svg" xmlns:xlink="http://www.w3.org/1999/xlink">
    <!-- Generator: Sketch 40.3 (33839) - http://www.bohemiancoding.com/sketch -->
    <title>monolith</title>
    <desc>Created with Sketch.</desc>
    <defs></defs>
    <g id="Page-1" stroke="none" stroke-width="1" fill="none" fill-rule="evenodd">
        <g id="monolith" transform="translate(-4.000000, 0.000000)">
            <g id="icon" transform="translate(55.000000, 0.000000)" fill="#595968">
                <g id="Capa_1">
                    <g id="Group">
                        <path d="M98.8125,50.6100045 C88.75,50.6100045 80.5555556,58.8894728 80.5555556,69.0844453 L82.6180556,131.994372 C82.6180556,142.175311 88.75,150.440747 98.8125,150.440747 C108.916667,150.440747 115.034722,142.175311 115.034722,131.994372 L117.097222,69.0844453 C117.083333,58.8824563 108.909722,50.6100045 98.8125,50.6100045 L98.8125,50.6100045 Z" id="Shape"></path>
                        <path d="M18.2986111,50.6100045 C8.20833333,50.6100045 0.0277777778,58.8824563 0.0277777778,69.0774288 L2.10416667,131.987355 C2.10416667,142.168295 8.21527778,150.43373 18.2986111,150.43373 C28.3888889,150.43373 34.5069444,142.168295 34.5069444,131.987355 L36.5555556,69.0774288 C36.5555556,58.8824563 28.3888889,50.6100045 18.2986111,50.6100045 L18.2986111,50.6100045 Z" id="Shape"></path>
                        <path d="M24.6736111,34.8369156 L86.9444444,36.9278322 C97.0347222,36.9278322 105.215278,28.6483638 105.215278,18.4604078 C105.215278,8.27245186 97.0347222,0 86.9305556,0 L24.6736111,4.16078368 C14.5833333,4.16078368 6.39583333,12.4332355 6.39583333,22.614175 C6.38888889,32.8091475 14.5763889,34.8369156 24.6736111,34.8369156 L24.6736111,34.8369156 Z" id="Shape"></path>
                    </g>
                </g>
            </g>
            <text id="Monolith" font-family="LucidaGrande, Lucida Grande" font-size="52.7999992" font-weight="normal" fill="#595968">
                <tspan x="0.423439134" y="201.327336">Monolith </tspan>
            </text>
            <g id="Group-3" transform="translate(127.000000, 213.888559)">
                <g id="Group-2" transform="translate(88.393846, 0.335268)" fill="#DC686E">
                    <g id="9-512-copy">
                        <path d="M4.84684865,0.0659023245 C4.65314145,0.089438869 4.45943426,0.131804649 4.2771216,0.202414282 C3.03511663,0.691974407 3.62193549,2.12770362 4.14038711,2.87145843 C4.25433252,3.03621424 4.3739752,3.19626274 4.52210423,3.34218931 C4.89812408,3.71406672 5.43936478,3.97296871 6.04327545,3.89294446 C7.21691317,3.73289595 7.87779655,2.46662986 8.04871466,1.60048502 C8.12277918,1.23802224 8.0999901,0.828486365 7.82652111,0.517803978 C7.35364766,-0.0188292356 6.47057074,0.0470730889 5.75841193,0.0470730889 C5.45645659,0.0470730889 5.14310671,0.0282438534 4.84684865,0.0659023245 L4.84684865,0.0659023245 Z" id="Shape"></path>
                        <path d="M3.70739455,4.25540724 C1.90135981,4.49077269 1.37721092,6.57611053 2.85280398,7.44696267 C3.37125559,7.75293775 3.95807445,7.71998659 4.56198513,7.71998659 L6.84089332,7.71998659 C7.22830771,7.71998659 7.64990573,7.75764506 8.03732012,7.70586466 C9.76359308,7.46579191 10.1737966,5.38045407 8.83493799,4.56608963 C8.2538164,4.21304146 7.58153848,4.24128531 6.89786603,4.24128531 C5.86666007,4.236578 4.72720597,4.12360259 3.70739455,4.25540724 L3.70739455,4.25540724 Z" id="Shape"></path>
                        <path d="M1.9412407,8.06832744 C1.35442184,8.13893708 0.864456578,8.3084002 0.488436726,8.70852145 C-0.274997519,9.52288589 -0.00152853598,10.9209566 1.14362283,11.3916875 C1.91275435,11.7117845 2.93256577,11.5799799 3.76436726,11.5799799 L7.8094293,11.5799799 C8.52728538,11.5799799 9.32490325,11.6600041 10.0313648,11.5234922 C11.8772804,11.1657367 12.1222631,8.83091149 10.373201,8.20954671 C9.55849134,7.91769356 8.45322087,8.05420552 7.58153848,8.05420552 L3.87831267,8.05420552 C3.24591564,8.04949821 2.56794045,7.9930105 1.9412407,8.06832744 L1.9412407,8.06832744 Z" id="Shape"></path>
                    </g>
                </g>
                <path d="M0.27528964,10.4714932 L0.27528964,0.105393523 L1.54750236,0.105393523 L1.54750236,4.64667038 C2.06844486,3.65631524 2.84984689,3.16114509 3.89173189,3.16114509 C4.73557263,3.16114509 5.39965673,3.47171233 5.88400409,4.09285613 C6.36835146,4.71399992 6.61052151,5.56317328 6.61052151,6.64040168 C6.61052151,7.81319066 6.33606212,8.75900907 5.7871351,9.47788528 C5.23820809,10.1967615 4.51600318,10.5561942 3.62049872,10.5561942 C2.78957391,10.5561942 2.09858203,10.234768 1.54750236,9.59190586 L1.39251198,10.4714932 L0.27528964,10.4714932 Z M1.54750236,8.70580306 C2.20190947,9.29654121 2.82617004,9.59190586 3.42030281,9.59190586 C4.64301083,9.59190586 5.25435566,8.65151695 5.25435566,6.77071091 C5.25435566,5.11143169 4.71189475,4.28180452 3.62695665,4.28180452 C2.91658052,4.28180452 2.22343602,4.67055651 1.54750236,5.44807217 L1.54750236,8.70580306 Z M9.0064145,12.9669151 L10.1430106,10.3933077 L7.43067895,3.31751617 L8.80621859,3.31751617 L10.8146356,8.6471639 L12.9586692,3.31751617 L14.1598447,3.31751617 L10.3302907,12.9669151 L9.0064145,12.9669151 Z M19.6555453,10.3933077 L19.6555453,0.750424238 L22.5486991,0.750424238 C23.4657301,0.750424238 24.1685614,0.954573332 24.6572141,1.36287764 C25.1458668,1.77118196 25.3901895,2.36408305 25.3901895,3.14159871 C25.3901895,4.42732292 24.7465553,5.33947845 23.4592676,5.87809265 L26.6494863,10.3933077 L24.9833397,10.3933077 L22.2645501,6.31462859 L20.9987953,6.31462859 L20.9987953,10.3933077 L19.6555453,10.3933077 Z M20.9987953,5.29170109 L21.4379347,5.29170109 C23.1428375,5.29170109 23.995276,4.61627164 23.995276,3.26539248 C23.995276,2.27069368 23.2806053,1.77335174 21.8512424,1.77335174 L20.9987953,1.77335174 L20.9987953,5.29170109 Z M33.19783,10.1652665 C32.3453786,10.4258863 31.6156395,10.5561942 31.0085908,10.5561942 C29.9753164,10.5561942 29.1325647,10.2097923 28.4803102,9.51697805 C27.8280558,8.82416382 27.5019334,7.92612498 27.5019334,6.82283461 C27.5019334,5.74994987 27.7893086,4.87037133 28.3640674,4.18407259 C28.9388263,3.49777385 29.6739469,3.15462963 30.5694514,3.15462963 C31.4175975,3.15462963 32.0730711,3.45868147 32.5358919,4.06679428 C32.9987127,4.67490708 33.2301196,5.53928303 33.2301196,6.65994806 L33.2236617,7.05739123 L28.7999779,7.05739123 C28.9851062,8.73838877 29.8009502,9.57887493 31.2475343,9.57887493 C31.7770874,9.57887493 32.4271795,9.43553621 33.19783,9.14885446 L33.19783,10.1652665 Z M28.8580993,6.09310289 L31.951449,6.09310289 C31.951449,4.77697303 31.4649563,4.11891797 30.4919562,4.11891797 C29.5146509,4.11891797 28.9700373,4.77697303 28.8580993,6.09310289 L28.8580993,6.09310289 Z M39.9269957,10.3933077 L39.9269957,9.06415345 C39.4103585,10.0588523 38.6311091,10.5561942 37.5892241,10.5561942 C36.7453834,10.5561942 36.0812993,10.245627 35.5969519,9.62448317 C35.1126046,9.00333937 34.8704345,8.15416601 34.8704345,7.07693762 C34.8704345,5.89980497 35.1448939,4.95290066 35.6938209,4.23619628 C36.2427479,3.51949191 36.9649528,3.16114509 37.8604573,3.16114509 C38.6913821,3.16114509 39.3802214,3.48257133 39.9269957,4.12543343 L39.9269957,0.105393523 L41.2056664,0.105393523 L41.2056664,10.3933077 L39.9269957,10.3933077 Z M39.9269957,5.00502077 C39.2682833,4.41862628 38.6440227,4.12543343 38.0541953,4.12543343 C36.8357926,4.12543343 36.2266004,5.06582235 36.2266004,6.94662838 C36.2266004,8.60156394 36.7690613,9.42901931 37.8539994,9.42901931 C38.5600702,9.42901931 39.2510621,9.04026732 39.9269957,8.26275166 L39.9269957,5.00502077 Z M47.8960845,10.3933077 L47.8960845,0.750424238 L50.3759307,0.750424238 C51.3317095,0.750424238 52.0646775,0.932855343 52.5748567,1.29772303 C53.0850359,1.66259071 53.3401217,2.18816604 53.3401217,2.87446477 C53.3401217,4.04291009 52.6857244,4.87470906 51.3769102,5.36988663 C52.9397377,5.85203321 53.7211397,6.72292456 53.7211397,7.9825868 C53.7211397,8.76444612 53.462825,9.36169081 52.9461878,9.77433879 C52.4295506,10.1869868 51.6847432,10.3933077 50.7117431,10.3933077 L47.8960845,10.3933077 Z M49.2393345,9.37038016 L49.5170256,9.37038016 C50.5115522,9.37038016 51.1551864,9.30739799 51.4479475,9.18143177 C52.0076378,8.94253031 52.2874787,8.49948334 52.2874787,7.85227757 C52.2874787,7.27891406 52.0334692,6.80220421 51.5254427,6.42213371 C51.0174161,6.0420632 50.3823924,5.8520308 49.6203525,5.8520308 L49.2393345,5.8520308 L49.2393345,9.37038016 Z M49.2393345,4.98547439 L49.672016,4.98547439 C50.3953081,4.98547439 50.9560663,4.82910487 51.3543074,4.51636114 C51.7525486,4.20361741 51.9516662,3.76274224 51.9516662,3.1937224 C51.9516662,2.24680389 51.2240797,1.77335174 49.768885,1.77335174 L49.2393345,1.77335174 L49.2393345,4.98547439 Z M59.158719,9.49417393 C58.3966791,10.202191 57.6626348,10.5561942 56.956564,10.5561942 C56.3753471,10.5561942 55.8931596,10.3726772 55.5099871,10.0056377 C55.1268145,9.63859817 54.9352311,9.17491911 54.9352311,8.61458659 C54.9352311,7.8414146 55.2570481,7.24742761 55.900692,6.8326078 C56.5443358,6.41778799 57.4667346,6.2103812 58.6679161,6.2103812 L58.9714389,6.2103812 L58.9714389,5.35685571 C58.9714389,4.53590342 58.5538301,4.12543343 57.7186,4.12543343 C57.0469717,4.12543343 56.3215378,4.33392613 55.5422767,4.75091776 L55.5422767,3.6888975 C56.3990334,3.3370608 57.2019617,3.16114509 57.9510856,3.16114509 C58.734652,3.16114509 59.3126312,3.3392326 59.6850405,3.69541296 C60.0574498,4.05159332 60.2436516,4.60540203 60.2436516,5.35685571 L60.2436516,8.5624629 C60.2436516,9.29654193 60.4675244,9.66357594 60.9152766,9.66357594 C60.9712457,9.66357594 61.0530453,9.65488874 61.1606781,9.63751409 L61.2510891,10.3476994 C60.9626334,10.4866966 60.6440452,10.5561942 60.2953151,10.5561942 C59.7011823,10.5561942 59.3223207,10.202191 59.158719,9.49417393 L59.158719,9.49417393 Z M58.9714389,8.79701952 L58.9714389,6.96617477 L58.5452154,6.95314384 C57.8477552,6.95314384 57.283768,7.08670947 56.853237,7.35384474 C56.422706,7.62098001 56.2074438,7.97172553 56.2074438,8.40609182 C56.2074438,8.71449188 56.3150749,8.97510775 56.5303404,9.18794723 C56.7456059,9.40078671 57.0082259,9.50720486 57.3182082,9.50720486 C57.8477613,9.50720486 58.3988327,9.27047878 58.9714389,8.79701952 L58.9714389,8.79701952 Z M62.8461985,10.4714932 L62.8461985,0.105393523 L64.1184112,0.105393523 L64.1184112,4.64667038 C64.6393537,3.65631524 65.4207557,3.16114509 66.4626407,3.16114509 C67.3064815,3.16114509 67.9705656,3.47171233 68.4549129,4.09285613 C68.9392603,4.71399992 69.1814303,5.56317328 69.1814303,6.64040168 C69.1814303,7.81319066 68.906971,8.75900907 68.3580439,9.47788528 C67.8091169,10.1967615 67.086912,10.5561942 66.1914076,10.5561942 C65.3604827,10.5561942 64.6694909,10.234768 64.1184112,9.59190586 L63.9634208,10.4714932 L62.8461985,10.4714932 Z M64.1184112,8.70580306 C64.7728183,9.29654121 65.3970789,9.59190586 65.9912117,9.59190586 C67.2139197,9.59190586 67.8252645,8.65151695 67.8252645,6.77071091 C67.8252645,5.11143169 67.2828036,4.28180452 66.1978655,4.28180452 C65.4874894,4.28180452 64.7943449,4.67055651 64.1184112,5.44807217 L64.1184112,8.70580306 Z M76.3109879,10.1652665 C75.4585366,10.4258863 74.7287975,10.5561942 74.1217488,10.5561942 C73.0884744,10.5561942 72.2457226,10.2097923 71.5934682,9.51697805 C70.9412137,8.82416382 70.6150914,7.92612498 70.6150914,6.82283461 C70.6150914,5.74994987 70.9024665,4.87037133 71.4772254,4.18407259 C72.0519843,3.49777385 72.7871049,3.15462963 73.6826094,3.15462963 C74.5307554,3.15462963 75.186229,3.45868147 75.6490498,4.06679428 C76.1118707,4.67490708 76.3432776,5.53928303 76.3432776,6.65994806 L76.3368197,7.05739123 L71.9131358,7.05739123 C72.0982642,8.73838877 72.9141082,9.57887493 74.3606923,9.57887493 C74.8902454,9.57887493 75.5403375,9.43553621 76.3109879,9.14885446 L76.3109879,10.1652665 Z M71.9712572,6.09310289 L75.0646069,6.09310289 C75.0646069,4.77697303 74.5781142,4.11891797 73.6051142,4.11891797 C72.6278088,4.11891797 72.0831953,4.77697303 71.9712572,6.09310289 L71.9712572,6.09310289 Z M78.5389747,10.3933077 L78.5389747,0.105393523 L79.8111874,0.105393523 L79.8111874,10.3933077 L78.5389747,10.3933077 Z M82.3814446,10.3933077 L82.3814446,8.7839886 L83.9765539,8.7839886 L83.9765539,10.3933077 L82.3814446,10.3933077 Z" id="by-Red-Babel." fill="#595968"></path>
            </g>
        </g>
    </g>
</svg>