<svg id="Livello_1" data-name="Livello 1" xmlns="http://www.w3.org/2000/svg" viewBox="0 0 580 550"><defs><style>.cls-1{fill:#d0cece;}.cls-2{fill:#e8e6e6;}.cls-3{fill:#222b36;}.cls-4{fill:#34404f;}.cls-5{fill:#8597b0;}.cls-6{fill:#acb9ca;}.cls-7{fill:#d7dce4;}.cls-36,.cls-41,.cls-8{fill:#fff;}.cls-19,.cls-20,.cls-32,.cls-41,.cls-9{font-size:18.07px;}.cls-9{font-family:Calibri, Calibri;}.cls-10{letter-spacing:0em;}.cls-11{letter-spacing:0em;}.cls-12{letter-spacing:0em;}.cls-13{letter-spacing:0em;}.cls-14,.cls-32{letter-spacing:0em;}.cls-15{letter-spacing:0em;}.cls-16{letter-spacing:0em;}.cls-17{letter-spacing:0em;}.cls-18{letter-spacing:0em;}.cls-19,.cls-36,.cls-41{font-family:Arial-BoldMT, Arial;font-weight:700;}.cls-20,.cls-32{font-family:ArialMT, Arial;}.cls-21{letter-spacing:0em;}.cls-22{letter-spacing:0em;}.cls-23{letter-spacing:0em;}.cls-24{letter-spacing:0em;}.cls-25{letter-spacing:0em;}.cls-26{letter-spacing:0em;}.cls-27{letter-spacing:0em;}.cls-28{letter-spacing:0.01em;}.cls-29{letter-spacing:0em;}.cls-30{letter-spacing:0em;}.cls-31{letter-spacing:0.01em;}.cls-33{letter-spacing:0em;}.cls-34{letter-spacing:0em;}.cls-35{letter-spacing:0em;}.cls-36{font-size:16.3px;letter-spacing:0em;}.cls-37{letter-spacing:0em;}.cls-38{letter-spacing:0em;}.cls-39{letter-spacing:0em;}.cls-40{letter-spacing:-0.01em;}.cls-42{letter-spacing:-0.01em;}.cls-43{letter-spacing:0.01em;}.cls-44{letter-spacing:-0.02em;}.cls-45{letter-spacing:0.02em;}.cls-46{letter-spacing:-0.01em;}.cls-47{fill:#aeaaa9;}.cls-48{fill:#3a3838;}</style></defs><title>Tavola disegno 1</title><rect class="cls-1" x="312.52" y="59.36" width="137.7" height="198.6"/><rect class="cls-2" x="10.6" y="257.76" width="302.12" height="26.32"/><rect class="cls-3" x="312.52" y="257.76" width="103.33" height="26.32"/><rect class="cls-4" x="415.65" y="257.76" width="34.57" height="26.32"/><rect class="cls-2" x="10.6" y="283.88" width="302.12" height="52.45"/><rect class="cls-4" x="312.52" y="283.88" width="103.33" height="52.45"/><rect class="cls-5" x="415.65" y="283.88" width="34.57" height="52.45"/><rect class="cls-2" x="10.6" y="336.14" width="302.12" height="52.45"/><rect class="cls-5" x="312.52" y="336.14" width="103.33" height="52.45"/><rect class="cls-6" x="415.65" y="336.14" width="34.57" height="52.45"/><rect class="cls-2" x="10.6" y="388.39" width="302.12" height="52.45"/><rect class="cls-6" x="312.52" y="388.39" width="103.33" height="52.45"/><rect class="cls-7" x="415.65" y="388.39" width="34.57" height="52.45"/><rect class="cls-2" x="10.6" y="440.64" width="302.12" height="52.45"/><rect class="cls-7" x="312.52" y="440.64" width="103.33" height="52.45"/><rect class="cls-8" x="415.65" y="440.64" width="34.57" height="52.45"/><text class="cls-9" transform="translate(59.32 78.02)"><tspan class="cls-10">1</tspan><tspan class="cls-11" x="9.23" y="0">+</tspan><tspan class="cls-12" x="18.25" y="0">5</tspan><tspan class="cls-13" x="27.48" y="0" xml:space="preserve"> c</tspan><tspan x="39.25" y="0">a</tspan><tspan class="cls-14" x="47.9" y="0">p</tspan><tspan class="cls-15" x="57.34" y="0">a</tspan><tspan class="cls-14" x="65.98" y="0">b</tspan><tspan class="cls-16" x="75.42" y="0">ili</tspan><tspan class="cls-11" x="87.81" y="0">t</tspan><tspan class="cls-17" x="93.88" y="0">y</tspan><tspan class="cls-13" x="102.12" y="0"> </tspan><tspan class="cls-15" x="106.22" y="0">l</tspan><tspan class="cls-18" x="110.35" y="0">e</tspan><tspan class="cls-10" x="119.38" y="0">v</tspan><tspan class="cls-18" x="127.61" y="0">e</tspan><tspan class="cls-16" x="136.64" y="0">l</tspan><tspan x="140.77" y="0">s</tspan></text><text class="cls-19" transform="translate(323.91 250.3)">N</text><text class="cls-19" transform="translate(358.88 250.3)">P</text><text class="cls-19" transform="translate(393.65 250.3)">L</text><text class="cls-20" transform="translate(54.4 250.3)"><tspan class="cls-21">9</tspan><tspan class="cls-22" x="10.01" y="0"> </tspan><tspan class="cls-21" x="15.13" y="0">p</tspan><tspan class="cls-23" x="25.14" y="0">r</tspan><tspan class="cls-21" x="31.21" y="0">o</tspan><tspan x="41.23" y="0">c</tspan><tspan class="cls-21" x="50.26" y="0">e</tspan><tspan x="60.28" y="0">ss</tspan><tspan class="cls-22" x="78.35" y="0"> </tspan><tspan class="cls-21" x="83.46" y="0">a</tspan><tspan class="cls-10" x="93.48" y="0">tt</tspan><tspan class="cls-17" x="103.66" y="0">r</tspan><tspan class="cls-24" x="109.74" y="0">i</tspan><tspan class="cls-21" x="113.68" y="0">bu</tspan><tspan class="cls-10" x="133.71" y="0">t</tspan><tspan class="cls-25" x="138.8" y="0">e</tspan><tspan class="cls-26" x="148.82" y="0">s</tspan></text><text class="cls-19" transform="translate(428.03 250.3)">F</text><text class="cls-20" transform="translate(470.66 277.21)"><tspan class="cls-21">pe</tspan><tspan class="cls-27" x="20.03" y="0">r</tspan><tspan class="cls-28" x="26.1" y="0">f</tspan><tspan class="cls-21" x="31.39" y="0">o</tspan><tspan class="cls-23" x="41.41" y="0">rm</tspan><tspan class="cls-21" x="62.59" y="0">e</tspan><tspan x="72.6" y="0">d</tspan></text><text class="cls-20" transform="translate(335.31 229.27) rotate(-90)"><tspan class="cls-24">N</tspan><tspan class="cls-21" x="12.98" y="0">o</tspan><tspan class="cls-10" x="22.99" y="0">t</tspan><tspan class="cls-22" x="28.09" y="0"> </tspan><tspan class="cls-24" x="33.2" y="0">i</tspan><tspan class="cls-17" x="37.14" y="0">m</tspan><tspan class="cls-21" x="52.25" y="0">p</tspan><tspan class="cls-24" x="62.26" y="0">l</tspan><tspan class="cls-21" x="66.21" y="0">e</tspan><tspan class="cls-17" x="76.22" y="0">m</tspan><tspan class="cls-21" x="91.33" y="0">en</tspan><tspan class="cls-29" x="111.36" y="0">t</tspan><tspan class="cls-21" x="116.45" y="0">e</tspan><tspan x="126.47" y="0">d</tspan></text><text class="cls-20" transform="translate(277.95 229.27) rotate(-90)"><tspan class="cls-14">A</tspan><tspan class="cls-26" x="12" y="0">c</tspan><tspan class="cls-25" x="21.04" y="0">h</tspan><tspan class="cls-30" x="31.05" y="0">i</tspan><tspan class="cls-25" x="34.99" y="0">e</tspan><tspan class="cls-26" x="45.01" y="0">v</tspan><tspan class="cls-25" x="54.04" y="0">e</tspan><tspan class="cls-17" x="64.06" y="0">m</tspan><tspan class="cls-21" x="79.17" y="0">en</tspan><tspan class="cls-10" x="99.2" y="0">t</tspan><tspan class="cls-22" x="104.29" y="0"> </tspan><tspan class="cls-21" x="109.4" y="0">o</tspan><tspan class="cls-10" x="119.42" y="0">f</tspan><tspan class="cls-22" x="124.51" y="0"> </tspan><tspan class="cls-29" x="129.62" y="0">t</tspan><tspan class="cls-21" x="134.71" y="0">he</tspan><tspan x="154.74" y="0"> </tspan></text><text class="cls-20" transform="translate(300.34 229.28) rotate(-90)"><tspan class="cls-21">a</tspan><tspan class="cls-10" x="10.01" y="0">tt</tspan><tspan class="cls-23" x="20.2" y="0">r</tspan><tspan class="cls-30" x="26.27" y="0">i</tspan><tspan class="cls-21" x="30.22" y="0">bu</tspan><tspan class="cls-10" x="50.25" y="0">t</tspan><tspan x="55.34" y="0">e</tspan></text><text class="cls-20" transform="translate(438.43 229.27) rotate(-90)"><tspan class="cls-16">F</tspan><tspan class="cls-21" x="11.02" y="0">u</tspan><tspan class="cls-24" x="21.04" y="0">ll</tspan><tspan x="28.92" y="0">y</tspan><tspan class="cls-22" x="37.96" y="0"> </tspan><tspan class="cls-24" x="43.07" y="0">i</tspan><tspan class="cls-17" x="47.01" y="0">m</tspan><tspan class="cls-21" x="62.12" y="0">p</tspan><tspan class="cls-24" x="72.13" y="0">l</tspan><tspan class="cls-21" x="76.08" y="0">e</tspan><tspan class="cls-17" x="86.09" y="0">m</tspan><tspan class="cls-21" x="101.2" y="0">en</tspan><tspan class="cls-10" x="121.23" y="0">t</tspan><tspan class="cls-25" x="126.32" y="0">e</tspan><tspan x="136.34" y="0">d</tspan></text><text class="cls-20" transform="translate(404.06 229.27) rotate(-90)"><tspan class="cls-21">La</tspan><tspan class="cls-23" x="20.03" y="0">r</tspan><tspan class="cls-21" x="26.1" y="0">ge</tspan><tspan class="cls-24" x="46.13" y="0">l</tspan><tspan x="50.07" y="0">y</tspan><tspan class="cls-22" x="59.11" y="0"> </tspan><tspan class="cls-30" x="64.22" y="0">i</tspan><tspan class="cls-23" x="68.16" y="0">m</tspan><tspan class="cls-21" x="83.27" y="0">p</tspan><tspan class="cls-30" x="93.29" y="0">l</tspan><tspan class="cls-25" x="97.23" y="0">e</tspan><tspan class="cls-17" x="107.25" y="0">m</tspan><tspan class="cls-21" x="122.35" y="0">en</tspan><tspan class="cls-10" x="142.38" y="0">t</tspan><tspan class="cls-21" x="147.48" y="0">e</tspan><tspan x="157.49" y="0">d</tspan></text><text class="cls-20" transform="translate(474.39 315.71)"><tspan class="cls-27">m</tspan><tspan class="cls-21" x="15.11" y="0">ana</tspan><tspan class="cls-31" x="45.15" y="0">g</tspan><tspan class="cls-21" x="55.37" y="0">e</tspan><tspan x="65.38" y="0">d</tspan></text><text class="cls-32" transform="translate(369.69 229.28) rotate(-90)">P<tspan class="cls-21" x="12" y="0">a</tspan><tspan class="cls-17" x="22.01" y="0">r</tspan><tspan class="cls-10" x="28.09" y="0">t</tspan><tspan class="cls-24" x="33.18" y="0">i</tspan><tspan class="cls-21" x="37.12" y="0">a</tspan><tspan class="cls-24" x="47.14" y="0">l</tspan><tspan class="cls-22" x="51.08" y="0"> </tspan><tspan class="cls-24" x="56.19" y="0">i</tspan><tspan class="cls-17" x="60.13" y="0">m</tspan><tspan class="cls-21" x="75.24" y="0">p</tspan><tspan class="cls-24" x="85.26" y="0">l</tspan><tspan class="cls-21" x="89.2" y="0">e</tspan><tspan class="cls-17" x="99.22" y="0">m</tspan><tspan class="cls-21" x="114.32" y="0">en</tspan><tspan class="cls-10" x="134.35" y="0">t</tspan><tspan class="cls-21" x="139.45" y="0">e</tspan><tspan class="cls-33" x="149.46" y="0">d</tspan></text><text class="cls-20" transform="translate(464.58 367.95)"><tspan class="cls-21">e</tspan><tspan x="10.01" y="0">s</tspan><tspan class="cls-10" x="19.05" y="0">t</tspan><tspan class="cls-21" x="24.14" y="0">ab</tspan><tspan class="cls-24" x="44.17" y="0">ili</tspan><tspan x="56" y="0">s</tspan><tspan class="cls-21" x="65.04" y="0">he</tspan><tspan x="85.07" y="0">d</tspan></text><text class="cls-20" transform="translate(467.92 420.2)"><tspan class="cls-21">p</tspan><tspan class="cls-27" x="10.01" y="0">r</tspan><tspan class="cls-21" x="16.09" y="0">ed</tspan><tspan class="cls-34" x="36.12" y="0">i</tspan><tspan x="40.06" y="0">c</tspan><tspan class="cls-35" x="49.1" y="0">t</tspan><tspan class="cls-21" x="54.19" y="0">ab</tspan><tspan class="cls-34" x="74.22" y="0">l</tspan><tspan x="78.16" y="0">e</tspan></text><text class="cls-36" transform="translate(347.69 276.42)">0<tspan class="cls-37" x="9.04" y="0">→1</tspan></text><text class="cls-20" transform="translate(471.46 472.45)"><tspan class="cls-38">op</tspan><tspan class="cls-10" x="20.07" y="0">t</tspan><tspan class="cls-39" x="25.16" y="0">i</tspan><tspan class="cls-27" x="29.08" y="0">m</tspan><tspan class="cls-39" x="44.19" y="0">i</tspan><tspan class="cls-40" x="48.12" y="0">z</tspan><tspan class="cls-39" x="56.97" y="0">i</tspan><tspan class="cls-38" x="60.9" y="0">n</tspan><tspan x="70.93" y="0">g</tspan></text><text class="cls-41" transform="translate(345.71 315.91)"><tspan class="cls-21">1</tspan><tspan x="10.01" y="0">→2</tspan></text><text class="cls-41" transform="translate(345.71 368.15)"><tspan class="cls-21">2</tspan><tspan x="10.01" y="0">→3</tspan></text><text class="cls-19" transform="translate(345.71 420.4)"><tspan class="cls-21">3</tspan><tspan x="10.01" y="0">→4</tspan></text><text class="cls-19" transform="translate(345.71 472.65)"><tspan class="cls-21">4</tspan><tspan x="10.01" y="0">→5</tspan></text><text class="cls-19" transform="translate(428.61 472.65)">5</text><text class="cls-20" transform="translate(26.31 276.42)"><tspan class="cls-14">E</tspan><tspan class="cls-42" x="12" y="0">x</tspan><tspan class="cls-21" x="20.85" y="0">e</tspan><tspan x="30.87" y="0">c</tspan><tspan class="cls-21" x="39.91" y="0">u</tspan><tspan class="cls-29" x="49.92" y="0">t</tspan><tspan class="cls-30" x="55.01" y="0">i</tspan><tspan class="cls-21" x="58.96" y="0">on</tspan><tspan class="cls-22" x="78.99" y="0"> </tspan><tspan class="cls-21" x="84.1" y="0">o</tspan><tspan class="cls-43" x="94.11" y="0">f</tspan><tspan class="cls-22" x="99.4" y="0"> </tspan><tspan class="cls-21" x="104.52" y="0">p</tspan><tspan class="cls-23" x="114.53" y="0">r</tspan><tspan class="cls-21" x="120.6" y="0">o</tspan><tspan x="130.62" y="0">c</tspan><tspan class="cls-21" x="139.65" y="0">e</tspan><tspan x="149.67" y="0">ss</tspan><tspan class="cls-21" x="167.74" y="0">e</tspan><tspan x="177.76" y="0">s</tspan></text><text class="cls-20" transform="translate(26.31 302.55)"><tspan class="cls-44">M</tspan><tspan class="cls-21" x="14.75" y="0">ana</tspan><tspan class="cls-31" x="44.79" y="0">g</tspan><tspan class="cls-21" x="55" y="0">e</tspan><tspan class="cls-17" x="65.02" y="0">m</tspan><tspan class="cls-21" x="80.13" y="0">en</tspan><tspan class="cls-10" x="100.16" y="0">t</tspan><tspan class="cls-22" x="105.25" y="0"> </tspan><tspan class="cls-25" x="110.36" y="0">o</tspan><tspan class="cls-43" x="120.38" y="0">f</tspan><tspan class="cls-22" x="125.67" y="0"> </tspan><tspan class="cls-21" x="130.78" y="0">p</tspan><tspan class="cls-17" x="140.79" y="0">r</tspan><tspan class="cls-21" x="146.87" y="0">o</tspan><tspan x="156.88" y="0">c</tspan><tspan class="cls-25" x="165.92" y="0">e</tspan><tspan class="cls-26" x="175.93" y="0">ss</tspan><tspan class="cls-21" x="194" y="0">e</tspan><tspan x="204.02" y="0">s</tspan></text><text class="cls-20" transform="translate(26.31 328.68)"><tspan class="cls-44">M</tspan><tspan class="cls-21" x="14.75" y="0">ana</tspan><tspan class="cls-31" x="44.79" y="0">g</tspan><tspan class="cls-21" x="55" y="0">e</tspan><tspan class="cls-17" x="65.02" y="0">m</tspan><tspan class="cls-21" x="80.13" y="0">en</tspan><tspan class="cls-10" x="100.16" y="0">t</tspan><tspan class="cls-22" x="105.25" y="0"> </tspan><tspan class="cls-25" x="110.36" y="0">o</tspan><tspan class="cls-43" x="120.38" y="0">f</tspan><tspan class="cls-22" x="125.67" y="0"> </tspan><tspan class="cls-21" x="130.78" y="0">p</tspan><tspan class="cls-17" x="140.79" y="0">r</tspan><tspan class="cls-21" x="146.87" y="0">odu</tspan><tspan x="176.91" y="0">c</tspan><tspan class="cls-10" x="185.95" y="0">t</tspan><tspan x="191.04" y="0">s</tspan></text><text class="cls-20" transform="translate(26.31 354.82)"><tspan class="cls-24">D</tspan><tspan class="cls-21" x="12.98" y="0">e</tspan><tspan class="cls-43" x="22.99" y="0">f</tspan><tspan class="cls-24" x="28.29" y="0">i</tspan><tspan class="cls-21" x="32.23" y="0">n</tspan><tspan class="cls-24" x="42.24" y="0">i</tspan><tspan class="cls-10" x="46.19" y="0">t</tspan><tspan class="cls-24" x="51.28" y="0">i</tspan><tspan class="cls-21" x="55.22" y="0">on</tspan><tspan class="cls-22" x="75.25" y="0"> </tspan><tspan class="cls-21" x="80.36" y="0">o</tspan><tspan class="cls-43" x="90.38" y="0">f</tspan><tspan class="cls-22" x="95.67" y="0"> </tspan><tspan class="cls-25" x="100.78" y="0">p</tspan><tspan class="cls-17" x="110.8" y="0">r</tspan><tspan class="cls-21" x="116.87" y="0">o</tspan><tspan x="126.88" y="0">c</tspan><tspan class="cls-21" x="135.92" y="0">e</tspan><tspan x="145.93" y="0">ss</tspan><tspan class="cls-21" x="164.01" y="0">e</tspan><tspan x="174.02" y="0">s</tspan></text><text class="cls-20" transform="translate(26.31 380.95)"><tspan class="cls-24">Di</tspan><tspan x="16.92" y="0">s</tspan><tspan class="cls-10" x="25.96" y="0">t</tspan><tspan class="cls-23" x="31.05" y="0">r</tspan><tspan class="cls-30" x="37.12" y="0">i</tspan><tspan class="cls-25" x="41.07" y="0">bu</tspan><tspan class="cls-10" x="61.1" y="0">t</tspan><tspan class="cls-24" x="66.19" y="0">i</tspan><tspan class="cls-21" x="70.13" y="0">on</tspan><tspan class="cls-22" x="90.16" y="0"> </tspan><tspan class="cls-21" x="95.27" y="0">o</tspan><tspan class="cls-43" x="105.29" y="0">f</tspan><tspan class="cls-10" x="110.58" y="0"> </tspan><tspan class="cls-25" x="115.67" y="0">p</tspan><tspan class="cls-17" x="125.69" y="0">r</tspan><tspan class="cls-21" x="131.76" y="0">o</tspan><tspan x="141.77" y="0">c</tspan><tspan class="cls-21" x="150.81" y="0">e</tspan><tspan x="160.83" y="0">ss</tspan><tspan class="cls-21" x="178.9" y="0">e</tspan><tspan x="188.91" y="0">s</tspan></text><text class="cls-20" transform="translate(26.31 407.08)"><tspan class="cls-44">M</tspan><tspan class="cls-21" x="14.75" y="0">ea</tspan><tspan x="34.78" y="0">s</tspan><tspan class="cls-21" x="43.81" y="0">u</tspan><tspan class="cls-17" x="53.83" y="0">r</tspan><tspan class="cls-25" x="59.9" y="0">e</tspan><tspan class="cls-17" x="69.91" y="0">m</tspan><tspan class="cls-21" x="85.02" y="0">en</tspan><tspan class="cls-10" x="105.05" y="0">t</tspan><tspan x="110.15" y="0">s</tspan><tspan class="cls-22" x="119.18" y="0"> </tspan><tspan class="cls-21" x="124.29" y="0">o</tspan><tspan class="cls-45" x="134.31" y="0">f</tspan><tspan class="cls-22" x="139.6" y="0"> </tspan><tspan class="cls-21" x="144.71" y="0">p</tspan><tspan class="cls-17" x="154.73" y="0">r</tspan><tspan class="cls-21" x="160.8" y="0">o</tspan><tspan x="170.81" y="0">c</tspan><tspan class="cls-21" x="179.85" y="0">e</tspan><tspan x="189.86" y="0">ss</tspan><tspan class="cls-21" x="207.94" y="0">e</tspan><tspan x="217.95" y="0">s</tspan></text><text class="cls-20" transform="translate(26.31 433.21)"><tspan class="cls-24">C</tspan><tspan class="cls-21" x="12.98" y="0">on</tspan><tspan class="cls-10" x="33.01" y="0">t</tspan><tspan class="cls-17" x="38.1" y="0">r</tspan><tspan class="cls-21" x="44.17" y="0">o</tspan><tspan class="cls-24" x="54.19" y="0">l</tspan><tspan class="cls-22" x="58.13" y="0"> </tspan><tspan class="cls-21" x="63.24" y="0">o</tspan><tspan class="cls-45" x="73.26" y="0">f</tspan><tspan class="cls-22" x="78.55" y="0"> </tspan><tspan class="cls-21" x="83.66" y="0">p</tspan><tspan class="cls-17" x="93.68" y="0">r</tspan><tspan class="cls-21" x="99.75" y="0">o</tspan><tspan x="109.76" y="0">c</tspan><tspan class="cls-21" x="118.8" y="0">e</tspan><tspan x="128.81" y="0">ss</tspan><tspan class="cls-21" x="146.89" y="0">e</tspan><tspan x="156.9" y="0">s</tspan></text><text class="cls-20" transform="translate(26.31 459.34)"><tspan class="cls-14">P</tspan><tspan class="cls-17" x="12" y="0">r</tspan><tspan class="cls-21" x="18.07" y="0">o</tspan><tspan x="28.09" y="0">c</tspan><tspan class="cls-21" x="37.12" y="0">e</tspan><tspan x="47.14" y="0">ss</tspan><tspan class="cls-17" x="65.21" y="0">-</tspan><tspan class="cls-10" x="71.28" y="0">I</tspan><tspan class="cls-21" x="76.38" y="0">nno</tspan><tspan class="cls-46" x="106.42" y="0">v</tspan><tspan class="cls-21" x="115.27" y="0">a</tspan><tspan class="cls-29" x="125.29" y="0">t</tspan><tspan class="cls-30" x="130.38" y="0">i</tspan><tspan class="cls-21" x="134.33" y="0">o</tspan><tspan class="cls-33" x="144.34" y="0">n</tspan></text><rect class="cls-47" x="12.96" y="256.19" width="243.19" height="3.14"/><rect class="cls-8" x="314.88" y="255.4" width="132.79" height="4.71"/><rect class="cls-8" x="12.96" y="281.53" width="301.92" height="4.71"/><rect class="cls-8" x="12.96" y="333.78" width="301.92" height="4.71"/><rect class="cls-8" x="12.96" y="386.03" width="301.92" height="4.71"/><rect class="cls-8" x="12.96" y="438.28" width="301.92" height="4.71"/><rect class="cls-48" x="12.96" y="490.54" width="439.43" height="4.71"/><rect class="cls-48" x="8.24" y="57" width="4.71" height="438.25"/><rect class="cls-47" x="253" y="61.71" width="3.14" height="197.62"/><rect class="cls-8" x="310.17" y="61.71" width="4.71" height="428.82"/><rect class="cls-8" x="344.54" y="61.71" width="4.71" height="198.4"/><text class="cls-20" transform="translate(26.32 485.43)"><tspan class="cls-10">O</tspan><tspan class="cls-21" x="14.13" y="0">p</tspan><tspan class="cls-10" x="24.14" y="0">t</tspan><tspan class="cls-24" x="29.24" y="0">i</tspan><tspan class="cls-17" x="33.18" y="0">m</tspan><tspan class="cls-24" x="48.29" y="0">i</tspan><tspan class="cls-46" x="52.23" y="0">z</tspan><tspan class="cls-21" x="61.09" y="0">a</tspan><tspan class="cls-46" x="71.1" y="0">z</tspan><tspan class="cls-30" x="79.96" y="0">i</tspan><tspan class="cls-25" x="83.9" y="0">on</tspan><tspan class="cls-22" x="103.93" y="0"> </tspan><tspan class="cls-21" x="109.04" y="0">o</tspan><tspan class="cls-43" x="119.06" y="0">f</tspan><tspan class="cls-22" x="124.35" y="0"> </tspan><tspan class="cls-21" x="129.46" y="0">p</tspan><tspan class="cls-23" x="139.47" y="0">r</tspan><tspan class="cls-21" x="145.55" y="0">o</tspan><tspan x="155.56" y="0">c</tspan><tspan class="cls-21" x="164.6" y="0">e</tspan><tspan x="174.61" y="0">ss</tspan><tspan class="cls-21" x="192.68" y="0">e</tspan><tspan x="202.7" y="0">s</tspan></text><rect class="cls-8" x="378.92" y="61.71" width="4.71" height="198.4"/><rect class="cls-8" x="413.3" y="61.71" width="4.71" height="198.4"/><rect class="cls-48" x="447.67" y="61.71" width="4.71" height="433.54"/><rect class="cls-48" x="571.03" y="259.33" width="3.14" height="235.13"/><rect class="cls-48" x="12.96" y="57" width="439.43" height="4.71"/><rect class="cls-47" x="12.96" y="83.91" width="243.19" height="3.14"/><rect class="cls-47" x="12.96" y="231.24" width="297.21" height="3.14"/><rect class="cls-48" x="452.39" y="256.19" width="121.79" height="3.14"/><rect class="cls-48" x="452.39" y="282.31" width="121.79" height="3.14"/><rect class="cls-8" x="12.96" y="307.65" width="301.92" height="4.71"/><rect class="cls-48" x="452.39" y="334.56" width="121.79" height="3.14"/><rect class="cls-8" x="12.96" y="359.91" width="301.92" height="4.71"/><rect class="cls-48" x="452.39" y="386.82" width="121.79" height="3.14"/><rect class="cls-8" x="12.96" y="412.16" width="301.92" height="4.71"/><rect class="cls-48" x="452.39" y="439.07" width="121.79" height="3.14"/><rect class="cls-8" x="12.96" y="464.41" width="301.92" height="4.71"/><rect class="cls-48" x="452.39" y="491.32" width="121.79" height="3.14"/></svg>